<svg xmlns="http://www.w3.org/2000/svg" xmlns:xlink="http://www.w3.org/1999/xlink" width="500" zoomAndPan="magnify" viewBox="0 0 375 374.999991" height="500" preserveAspectRatio="xMidYMid meet" version="1.0"><defs><g/><clipPath id="1155c5bd21"><path d="M 270.863281 286.757812 L 332.558594 286.757812 L 332.558594 348.449219 L 270.863281 348.449219 Z M 270.863281 286.757812 " clip-rule="nonzero"/></clipPath><clipPath id="e6789e1487"><path d="M 301.710938 286.757812 C 284.675781 286.757812 270.863281 300.566406 270.863281 317.605469 C 270.863281 334.640625 284.675781 348.449219 301.710938 348.449219 C 318.746094 348.449219 332.558594 334.640625 332.558594 317.605469 C 332.558594 300.566406 318.746094 286.757812 301.710938 286.757812 Z M 301.710938 286.757812 " clip-rule="nonzero"/></clipPath></defs><rect x="-37.5" width="450" fill="#ffffff" y="-37.499999" height="449.999989" fill-opacity="1"/><rect x="-37.5" width="450" fill="#ffffff" y="-37.499999" height="449.999989" fill-opacity="1"/><g fill="#000000" fill-opacity="1"><g transform="translate(37.500002, 345.151235)"><g><path d="M 40.546875 -318.828125 L 168.265625 -318.828125 C 190.328125 -318.828125 209.984375 -315.332031 227.234375 -308.34375 C 244.484375 -301.351562 258.078125 -290.785156 268.015625 -276.640625 C 277.960938 -262.503906 282.9375 -244.867188 282.9375 -223.734375 C 282.9375 -200.742188 277.265625 -181.015625 265.921875 -164.546875 C 254.578125 -148.078125 239.347656 -135.488281 220.234375 -126.78125 C 201.128906 -118.082031 179.769531 -113.734375 156.15625 -113.734375 L 111.40625 -113.734375 L 111.40625 0 L 40.546875 0 Z M 111.40625 -162.21875 L 155.21875 -162.21875 C 172 -162.21875 185.515625 -167.265625 195.765625 -177.359375 C 206.023438 -187.460938 211.15625 -200.75 211.15625 -217.21875 C 211.15625 -234.300781 205.945312 -247.425781 195.53125 -256.59375 C 185.125 -265.769531 171.066406 -270.359375 153.359375 -270.359375 L 111.40625 -270.359375 Z M 111.40625 -162.21875 "/></g></g></g><g clip-path="url(#1155c5bd21)"><g clip-path="url(#e6789e1487)"><path fill="#8c52ff" d="M 270.863281 286.757812 L 332.558594 286.757812 L 332.558594 348.449219 L 270.863281 348.449219 Z M 270.863281 286.757812 " fill-opacity="1" fill-rule="nonzero"/></g></g></svg>