<svg xmlns="http://www.w3.org/2000/svg" xmlns:xlink="http://www.w3.org/1999/xlink" width="500" zoomAndPan="magnify" viewBox="0 0 375 374.999991" height="500" preserveAspectRatio="xMidYMid meet" version="1.0"><defs><g/><clipPath id="53339c891e"><path d="M 245.195312 266.167969 L 286.664062 266.167969 L 286.664062 307.636719 L 245.195312 307.636719 Z M 245.195312 266.167969 " clip-rule="nonzero"/></clipPath><clipPath id="b81a4b552f"><path d="M 265.929688 266.167969 C 254.480469 266.167969 245.195312 275.449219 245.195312 286.902344 C 245.195312 298.351562 254.480469 307.636719 265.929688 307.636719 C 277.382812 307.636719 286.664062 298.351562 286.664062 286.902344 C 286.664062 275.449219 277.382812 266.167969 265.929688 266.167969 Z M 265.929688 266.167969 " clip-rule="nonzero"/></clipPath></defs><rect x="-37.5" width="450" fill="#ffffff" y="-37.499999" height="449.999989" fill-opacity="1"/><rect x="-37.5" width="450" fill="#ffffff" y="-37.499999" height="449.999989" fill-opacity="1"/><g fill="#000000" fill-opacity="1"><g transform="translate(88.335937, 305.418431)"><g><path d="M 27.265625 -214.3125 L 113.109375 -214.3125 C 127.929688 -214.3125 141.140625 -211.957031 152.734375 -207.25 C 164.328125 -202.550781 173.46875 -195.445312 180.15625 -185.9375 C 186.84375 -176.4375 190.1875 -164.585938 190.1875 -150.390625 C 190.1875 -134.929688 186.375 -121.664062 178.75 -110.59375 C 171.125 -99.53125 160.882812 -91.070312 148.03125 -85.21875 C 135.1875 -79.375 120.828125 -76.453125 104.953125 -76.453125 L 74.875 -76.453125 L 74.875 0 L 27.265625 0 Z M 74.875 -109.03125 L 104.328125 -109.03125 C 115.609375 -109.03125 124.695312 -112.421875 131.59375 -119.203125 C 138.488281 -125.992188 141.9375 -134.925781 141.9375 -146 C 141.9375 -157.488281 138.4375 -166.3125 131.4375 -172.46875 C 124.4375 -178.632812 114.984375 -181.71875 103.078125 -181.71875 L 74.875 -181.71875 Z M 74.875 -109.03125 "/></g></g></g><g clip-path="url(#53339c891e)"><g clip-path="url(#b81a4b552f)"><path fill="#8c52ff" d="M 245.195312 266.167969 L 286.664062 266.167969 L 286.664062 307.636719 L 245.195312 307.636719 Z M 245.195312 266.167969 " fill-opacity="1" fill-rule="nonzero"/></g></g></svg>