<svg xmlns="http://www.w3.org/2000/svg" xmlns:xlink="http://www.w3.org/1999/xlink" width="124" zoomAndPan="magnify" viewBox="0 0 93 30.000001" height="40" preserveAspectRatio="xMidYMid meet" version="1.0"><defs><g/><clipPath id="4ba0c2b4c5"><path d="M 23.144531 1.535156 L 28.554688 1.535156 L 28.554688 6.945312 L 23.144531 6.945312 Z M 23.144531 1.535156 " clip-rule="nonzero"/></clipPath><clipPath id="7d04ff2c7e"><path d="M 25.847656 1.535156 C 24.355469 1.535156 23.144531 2.746094 23.144531 4.242188 C 23.144531 5.734375 24.355469 6.945312 25.847656 6.945312 C 27.34375 6.945312 28.554688 5.734375 28.554688 4.242188 C 28.554688 2.746094 27.34375 1.535156 25.847656 1.535156 Z M 25.847656 1.535156 " clip-rule="nonzero"/></clipPath><clipPath id="f2c1968477"><path d="M 84.496094 18.925781 L 89.90625 18.925781 L 89.90625 24.335938 L 84.496094 24.335938 Z M 84.496094 18.925781 " clip-rule="nonzero"/></clipPath><clipPath id="76df86377e"><path d="M 87.199219 18.925781 C 85.707031 18.925781 84.496094 20.136719 84.496094 21.632812 C 84.496094 23.125 85.707031 24.335938 87.199219 24.335938 C 88.695312 24.335938 89.90625 23.125 89.90625 21.632812 C 89.90625 20.136719 88.695312 18.925781 87.199219 18.925781 Z M 87.199219 18.925781 " clip-rule="nonzero"/></clipPath></defs><g fill="#ffffff" fill-opacity="1"><g transform="translate(2.131774, 24.122749)"><g><path d="M 2.65625 -20.921875 L 11.046875 -20.921875 C 12.492188 -20.921875 13.78125 -20.691406 14.90625 -20.234375 C 16.039062 -19.773438 16.9375 -19.082031 17.59375 -18.15625 C 18.25 -17.226562 18.578125 -16.070312 18.578125 -14.6875 C 18.578125 -13.175781 18.203125 -11.878906 17.453125 -10.796875 C 16.710938 -9.710938 15.710938 -8.882812 14.453125 -8.3125 C 13.203125 -7.75 11.800781 -7.46875 10.25 -7.46875 L 7.3125 -7.46875 L 7.3125 0 L 2.65625 0 Z M 7.3125 -10.640625 L 10.1875 -10.640625 C 11.289062 -10.640625 12.175781 -10.972656 12.84375 -11.640625 C 13.519531 -12.304688 13.859375 -13.175781 13.859375 -14.25 C 13.859375 -15.375 13.515625 -16.238281 12.828125 -16.84375 C 12.148438 -17.445312 11.226562 -17.75 10.0625 -17.75 L 7.3125 -17.75 Z M 7.3125 -10.640625 "/></g></g></g><g fill="#ffffff" fill-opacity="1"><g transform="translate(21.496072, 24.122749)"><g><path d="M 6.796875 -19.984375 C 6.796875 -19.285156 6.5625 -18.695312 6.09375 -18.21875 C 5.625 -17.738281 5.03125 -17.5 4.3125 -17.5 C 3.625 -17.5 3.035156 -17.738281 2.546875 -18.21875 C 2.054688 -18.695312 1.8125 -19.285156 1.8125 -19.984375 C 1.8125 -20.671875 2.054688 -21.253906 2.546875 -21.734375 C 3.046875 -22.210938 3.632812 -22.453125 4.3125 -22.453125 C 4.988281 -22.453125 5.570312 -22.210938 6.0625 -21.734375 C 6.550781 -21.253906 6.796875 -20.671875 6.796875 -19.984375 Z M 6.453125 0 L 2.109375 0 L 2.109375 -14.46875 L 6.453125 -14.46875 Z M 6.453125 0 "/></g></g></g><g fill="#ffffff" fill-opacity="1"><g transform="translate(30.031045, 24.122749)"><g><path d="M 8.078125 -4.09375 L 11.8125 -14.46875 L 15.90625 -14.46875 L 10.125 0.09375 L 5.53125 0.09375 L 0.34375 -14.46875 L 4.828125 -14.46875 Z M 8.078125 -4.09375 "/></g></g></g><g fill="#ffffff" fill-opacity="1"><g transform="translate(46.275029, 24.122749)"><g><path d="M 16.671875 -7.53125 C 16.671875 -5.976562 16.328125 -4.609375 15.640625 -3.421875 C 14.960938 -2.242188 14.019531 -1.316406 12.8125 -0.640625 C 11.613281 0.0234375 10.25 0.359375 8.71875 0.359375 C 7.1875 0.359375 5.832031 0.0546875 4.65625 -0.546875 C 3.488281 -1.160156 2.578125 -2.03125 1.921875 -3.15625 C 1.273438 -4.289062 0.953125 -5.644531 0.953125 -7.21875 C 0.953125 -8.726562 1.300781 -10.0625 2 -11.21875 C 2.707031 -12.382812 3.664062 -13.300781 4.875 -13.96875 C 6.09375 -14.644531 7.457031 -14.984375 8.96875 -14.984375 C 10.5 -14.984375 11.835938 -14.691406 12.984375 -14.109375 C 14.140625 -13.535156 15.039062 -12.691406 15.6875 -11.578125 C 16.34375 -10.460938 16.671875 -9.113281 16.671875 -7.53125 Z M 5.5 -7.4375 C 5.5 -5.90625 5.757812 -4.664062 6.28125 -3.71875 C 6.800781 -2.769531 7.644531 -2.296875 8.8125 -2.296875 C 9.988281 -2.296875 10.835938 -2.753906 11.359375 -3.671875 C 11.878906 -4.585938 12.140625 -5.726562 12.140625 -7.09375 C 12.140625 -8.601562 11.910156 -9.851562 11.453125 -10.84375 C 10.992188 -11.832031 10.164062 -12.328125 8.96875 -12.328125 C 7.78125 -12.328125 6.90625 -11.867188 6.34375 -10.953125 C 5.78125 -10.035156 5.5 -8.863281 5.5 -7.4375 Z M 5.5 -7.4375 "/></g></g></g><g fill="#ffffff" fill-opacity="1"><g transform="translate(63.895617, 24.122749)"><g><path d="M 6.765625 -5.171875 C 6.765625 -4.296875 6.988281 -3.660156 7.4375 -3.265625 C 7.882812 -2.878906 8.640625 -2.6875 9.703125 -2.6875 C 10.023438 -2.6875 10.367188 -2.707031 10.734375 -2.75 C 11.097656 -2.789062 11.46875 -2.84375 11.84375 -2.90625 L 11.84375 -0.3125 C 11.3125 -0.144531 10.71875 -0.00390625 10.0625 0.109375 C 9.414062 0.222656 8.734375 0.28125 8.015625 0.28125 C 6.972656 0.28125 6.03125 0.132812 5.1875 -0.15625 C 4.34375 -0.457031 3.671875 -0.929688 3.171875 -1.578125 C 2.671875 -2.234375 2.421875 -3.082031 2.421875 -4.125 L 2.421875 -11.625 L 0.359375 -11.625 L 0.359375 -14.46875 L 2.546875 -14.46875 L 3.484375 -18.015625 L 6.765625 -18.015625 L 6.765625 -14.46875 L 11.75 -14.46875 L 11.75 -11.625 L 6.765625 -11.625 Z M 6.765625 -5.171875 "/></g></g></g><g fill="#ffffff" fill-opacity="1"><g transform="translate(75.887405, 24.122749)"><g><path d="M 6.234375 -11.9375 C 6.890625 -12.8125 7.597656 -13.492188 8.359375 -13.984375 C 9.128906 -14.472656 9.867188 -14.71875 10.578125 -14.71875 C 10.910156 -14.71875 11.222656 -14.707031 11.515625 -14.6875 C 11.816406 -14.664062 12.097656 -14.613281 12.359375 -14.53125 L 12.359375 -10.703125 C 11.847656 -10.804688 11.414062 -10.867188 11.0625 -10.890625 C 10.707031 -10.910156 10.363281 -10.921875 10.03125 -10.921875 C 9.4375 -10.921875 8.804688 -10.734375 8.140625 -10.359375 C 7.484375 -9.984375 6.910156 -9.53125 6.421875 -9 L 6.421875 0 L 2.015625 0 L 2.015625 -9.328125 C 2.015625 -9.691406 2.007812 -10.1875 2 -10.8125 C 1.988281 -11.4375 1.96875 -12.078125 1.9375 -12.734375 C 1.90625 -13.398438 1.863281 -13.976562 1.8125 -14.46875 L 5.9375 -14.46875 C 6.019531 -14.019531 6.082031 -13.585938 6.125 -13.171875 C 6.164062 -12.753906 6.203125 -12.34375 6.234375 -11.9375 Z M 6.234375 -11.9375 "/></g></g></g><g clip-path="url(#4ba0c2b4c5)"><g clip-path="url(#7d04ff2c7e)"><path fill="#8c52ff" d="M 23.144531 1.535156 L 28.554688 1.535156 L 28.554688 6.945312 L 23.144531 6.945312 Z M 23.144531 1.535156 " fill-opacity="1" fill-rule="nonzero"/></g></g><g clip-path="url(#f2c1968477)"><g clip-path="url(#76df86377e)"><path fill="#8c52ff" d="M 84.496094 18.925781 L 89.90625 18.925781 L 89.90625 24.335938 L 84.496094 24.335938 Z M 84.496094 18.925781 " fill-opacity="1" fill-rule="nonzero"/></g></g></svg>